#!OML:ASF C:\Vicon Data\Big\jianyuan-13\jianyuan\Session 1\Capture.male.ASF
:FULLY-SPECIFIED
:DEGREES
181
root -5.154095 17.584455 -12.193627 5.731019 7.274798 1.823026
lowerback -7.073090 1.056333 -2.092271 
upperback 2.842948 1.682250 -0.946881 
thorax 6.918961 0.755874 0.400720 
lowerneck 0.512489 -2.696533 2.354841 
upperneck 13.562514 -3.363115 -3.047293 
head 4.268299 -1.673656 -1.553460 
rclavicle 0.000000 0.000000 
rhumerus -35.237053 -16.009788 -80.704165 
rradius 41.791656 
rwrist 22.113826 
rhand -19.945203 -18.445502 
rfingers 0.000000 
rthumb 6.392708 -48.329020 
lclavicle 0.000000 0.000000 
lhumerus -35.321133 29.388718 74.977928 
lradius 27.850301 
lwrist -52.325783 
lhand -18.972532 0.103718 
lfingers 0.000000 
lthumb 7.331666 29.956654 
rfemur -59.829342 -19.434653 17.087563 
rtibia 100.570431 
rfoot -4.643313 -4.767507 
rtoes -35.152006 
lfemur -19.233456 -3.716469 -25.134486 
ltibia 22.557399 
lfoot -10.271152 2.445151 
ltoes -23.621235 
182
root -5.126598 17.609105 -12.147470 5.345914 7.517893 1.668565
lowerback -6.714727 0.899108 -2.057397 
upperback 2.983890 1.451673 -0.802891 
thorax 6.863663 0.640758 0.496793 
lowerneck 0.485521 -2.658827 2.272135 
upperneck 13.611722 -3.303897 -3.099250 
head 4.293784 -1.651105 -1.556421 
rclavicle 0.000000 0.000000 
rhumerus -35.264467 -15.900323 -80.581881 
rradius 41.779972 
rwrist 22.113335 
rhand -20.045815 -18.348411 
rfingers 0.000000 
rthumb 6.295616 -48.234811 
lclavicle 0.000000 0.000000 
lhumerus -34.935956 29.869678 75.092691 
lradius 27.801447 
lwrist -52.647275 
lhand -19.243282 0.084401 
lfingers 0.000000 
lthumb 7.070344 29.946283 
rfemur -61.569302 -19.755310 17.503758 
rtibia 101.346185 
rfoot -4.358439 -4.344870 
rtoes -35.306115 
lfemur -18.234300 -3.908358 -25.061551 
ltibia 21.828213 
lfoot -10.292101 2.515059 
ltoes -23.673578 
183
root -5.100123 17.631280 -12.104066 5.095758 7.638798 1.434078
lowerback -6.497711 0.789711 -1.896694 
upperback 3.084825 1.278157 -0.679329 
thorax 6.849708 0.559421 0.511521 
lowerneck 0.460525 -2.601407 2.158780 
upperneck 13.658043 -3.223740 -3.091011 
head 4.319768 -1.617137 -1.532806 
rclavicle 0.000000 0.000000 
rhumerus -35.234966 -15.746387 -80.453367 
rradius 41.675102 
rwrist 21.912828 
rhand -20.110256 -18.325694 
rfingers 0.000000 
rthumb 6.233365 -48.214001 
lclavicle 0.000000 0.000000 
lhumerus -34.452067 29.871008 75.336863 
lradius 27.891633 
lwrist -52.705188 
lhand -19.109947 0.149092 
lfingers 0.000000 
lthumb 7.199052 30.006606 
rfemur -63.540706 -19.803612 18.006754 
rtibia 102.018089 
rfoot -3.966848 -3.960961 
rtoes -34.947311 
lfemur -17.446933 -3.842525 -24.926243 
ltibia 21.124652 
lfoot -10.214882 2.500008 
ltoes -24.171213 
184
root -5.071310 17.648197 -12.058975 4.984609 7.817449 1.242017
lowerback -6.350843 0.801313 -1.715972 
upperback 3.083960 1.274294 -0.697243 
thorax 6.768095 0.566977 0.388515 
lowerneck 0.453785 -2.694423 2.422875 
upperneck 13.760453 -3.363692 -3.038324 
head 4.351115 -1.670204 -1.568614 
rclavicle 0.000000 0.000000 
rhumerus -35.592318 -16.304181 -80.263142 
rradius 41.743096 
rwrist 22.078991 
rhand -19.988129 -18.311829 
rfingers 0.000000 
rthumb 6.351297 -48.196591 
lclavicle 0.000000 0.000000 
lhumerus -33.947814 29.565521 75.529134 
lradius 27.904521 
lwrist -52.679636 
lhand -19.245230 0.139493 
lfingers 0.000000 
lthumb 7.068466 30.001483 
rfemur -65.652702 -19.874338 18.544025 
rtibia 102.530561 
rfoot -3.538889 -3.672864 
rtoes -35.353766 
lfemur -16.861082 -3.863667 -24.831172 
ltibia 20.530867 
lfoot -10.110270 2.466662 
ltoes -24.708845 
